<svg xmlns="http://www.w3.org/2000/svg" viewBox="0 0 1600 900">
<defs><linearGradient id="g" x1="0" y1="0" x2="1" y2="1"><stop stop-color="#173c2a"/><stop offset="1" stop-color="#8c6b72"/></linearGradient><radialGradient id="r"><stop stop-color="#f4c6d7" stop-opacity=".75"/><stop offset="1" stop-color="#f4c6d7" stop-opacity="0"/></radialGradient></defs>
<rect width="1600" height="900" fill="url(#g)"/><circle cx="1250" cy="180" r="430" fill="url(#r)"/><circle cx="250" cy="760" r="360" fill="url(#r)" opacity=".45"/>
<g fill="#f8d7e4" opacity=".9"><circle cx="520" cy="300" r="70"/><circle cx="1080" cy="300" r="70"/><circle cx="430" cy="430" r="45"/><circle cx="1170" cy="430" r="45"/></g><g fill="none" stroke="#d8f0d0" stroke-width="18" stroke-linecap="round"><path d="M410 650c100-230 200-330 390-390"/><path d="M1190 650c-100-230-200-330-390-390"/></g><path d="M680 570c70-170 170-170 240 0-70 65-170 65-240 0z" fill="#fff" opacity=".9"/>
<rect x="70" y="70" width="1460" height="760" rx="42" fill="none" stroke="#fff" stroke-opacity=".22" stroke-width="2"/>
<text x="800" y="695" text-anchor="middle" fill="#fff" font-family="Georgia,serif" font-size="82" font-weight="700">Camila &amp; Mateo</text>
<text x="800" y="760" text-anchor="middle" fill="#fff" fill-opacity=".86" font-family="Arial,sans-serif" font-size="28" letter-spacing="8">ROMANTIC GARDEN</text>
</svg>
