<svg xmlns="http://www.w3.org/2000/svg" viewBox="0 0 1600 900">
<defs><linearGradient id="g" x1="0" y1="0" x2="1" y2="1"><stop stop-color="#0f4c45"/><stop offset="1" stop-color="#79b64b"/></linearGradient><radialGradient id="r"><stop stop-color="#f5dc73" stop-opacity=".75"/><stop offset="1" stop-color="#f5dc73" stop-opacity="0"/></radialGradient></defs>
<rect width="1600" height="900" fill="url(#g)"/><circle cx="1250" cy="180" r="430" fill="url(#r)"/><circle cx="250" cy="760" r="360" fill="url(#r)" opacity=".45"/>
<g fill="#173b31"><ellipse cx="820" cy="430" rx="260" ry="145"/><circle cx="1060" cy="345" r="100"/><rect x="615" y="510" width="55" height="150" rx="20"/><rect x="900" y="510" width="55" height="150" rx="20"/><path d="M570 430L380 330l170 190z"/></g><g fill="#f5dc73"><circle cx="1090" cy="320" r="13"/><path d="M720 305l45-90 45 90 45-90 45 95z"/></g><g fill="#c6ef9e" opacity=".8"><circle cx="300" cy="700" r="130"/><circle cx="1350" cy="720" r="170"/></g>
<rect x="70" y="70" width="1460" height="760" rx="42" fill="none" stroke="#fff" stroke-opacity=".22" stroke-width="2"/>
<text x="800" y="695" text-anchor="middle" fill="#fff" font-family="Georgia,serif" font-size="82" font-weight="700">Mateo cumple 6</text>
<text x="800" y="760" text-anchor="middle" fill="#fff" fill-opacity=".86" font-family="Arial,sans-serif" font-size="28" letter-spacing="8">DINO ADVENTURE</text>
</svg>
